# xmcd
#
# Track frame offsets:
#	150
#	15400
#	34595
#	47360
#	68798
#	86588
#	102800
#	122357
#	142472
#	160032
#	174587
#	192647
#	212685
#	232672
#	257387
#
# Disc length: 3683 seconds
#
# Revision: 1
# Processed by: cddbd v1.5.2PL0 Copyright (c) Steve Scherf et al.
# Submitted via: audiograbber 1.83.01
#
DISCID=ba0e610f
DTITLE=Various Artist - SC8578
DYEAR=1900
DGENRE=Karaoke
TTITLE0=Tippin, Aaron - What This Country Needs
TTITLE1=White, Bryan - God Gave Me You
TTITLE2=Brooks and Dunn - Beer Thirty
TTITLE3=Wills, Mark - Back At One
TTITLE4=Ingram, Jack - How Many Days
TTITLE5=Mavericks, The - Here Comes My Baby
TTITLE6=Jones, George - Cold Hard Truth, The
TTITLE7=Brown, T. Graham - Memphis Women and Chicken
TTITLE8=England, Tyler - Too Many Highways
TTITLE9=Lawrence, Tracy - Lessons Learned
TTITLE10=Rogers, Kenny - Buy Me A Rose
TTITLE11=Vassar, Phil - Carlene
TTITLE12=Robison, Charlie - My Hometown
TTITLE13=Walker, Clay - Chain Of Love, The
TTITLE14=Ledoux, Chris - Stampede
EXTD=
EXTT0=
EXTT1=
EXTT2=
EXTT3=
EXTT4=
EXTT5=
EXTT6=
EXTT7=
EXTT8=
EXTT9=
EXTT10=
EXTT11=
EXTT12=
EXTT13=
EXTT14=
PLAYORDER=
